<svg width="148" height="38" viewBox="0 0 148 38" fill="none" xmlns="http://www.w3.org/2000/svg">
<path d="M10.844 30.336C8.8 30.336 6.994 29.902 5.426 29.034C3.886 28.166 2.696 26.934 1.856 25.338C1.016 23.742 0.596 21.88 0.596 19.752C0.596 17.624 1.03 15.748 1.898 14.124C2.794 12.472 4.04 11.198 5.636 10.302C7.232 9.406 9.066 8.958 11.138 8.958C12.23 8.958 13.322 9.112 14.414 9.42C15.534 9.728 16.514 10.148 17.354 10.68C18.25 11.268 18.698 12.01 18.698 12.906C18.698 13.522 18.544 14.026 18.236 14.418C17.956 14.782 17.578 14.964 17.102 14.964C16.794 14.964 16.472 14.894 16.136 14.754C15.8 14.614 15.464 14.446 15.128 14.25C14.512 13.886 13.924 13.606 13.364 13.41C12.804 13.186 12.16 13.074 11.432 13.074C9.696 13.074 8.352 13.648 7.4 14.796C6.476 15.916 6.014 17.54 6.014 19.668C6.014 21.768 6.476 23.392 7.4 24.54C8.352 25.66 9.696 26.22 11.432 26.22C12.132 26.22 12.748 26.122 13.28 25.926C13.84 25.702 14.456 25.408 15.128 25.044C15.548 24.792 15.912 24.61 16.22 24.498C16.528 24.358 16.836 24.288 17.144 24.288C17.592 24.288 17.97 24.484 18.278 24.876C18.586 25.268 18.74 25.758 18.74 26.346C18.74 26.822 18.628 27.242 18.404 27.606C18.208 27.942 17.872 28.25 17.396 28.53C16.528 29.09 15.52 29.538 14.372 29.874C13.224 30.182 12.048 30.336 10.844 30.336ZM33.8298 8.958C38.6458 8.958 41.0538 11.772 41.0538 17.4V27.732C41.0538 28.516 40.8158 29.132 40.3398 29.58C39.8918 30.028 39.2618 30.252 38.4498 30.252C37.6378 30.252 36.9938 30.028 36.5178 29.58C36.0418 29.132 35.8038 28.516 35.8038 27.732V17.4C35.8038 15.916 35.4958 14.838 34.8798 14.166C34.2918 13.466 33.3538 13.116 32.0658 13.116C30.5538 13.116 29.3358 13.592 28.4118 14.544C27.5158 15.496 27.0678 16.77 27.0678 18.366V27.732C27.0678 28.516 26.8298 29.132 26.3538 29.58C25.8778 30.028 25.2338 30.252 24.4218 30.252C23.6098 30.252 22.9658 30.028 22.4898 29.58C22.0418 29.132 21.8178 28.516 21.8178 27.732V2.616C21.8178 1.888 22.0558 1.3 22.5318 0.852C23.0358 0.403999 23.6798 0.179998 24.4638 0.179998C25.2478 0.179998 25.8778 0.389998 26.3538 0.809998C26.8298 1.23 27.0678 1.804 27.0678 2.532V12.318C27.7678 11.226 28.6918 10.4 29.8398 9.84C31.0158 9.252 32.3458 8.958 33.8298 8.958ZM54.8702 8.958C57.7262 8.958 59.8402 9.672 61.2122 11.1C62.6122 12.5 63.3122 14.642 63.3122 17.526V27.774C63.3122 28.53 63.0882 29.132 62.6402 29.58C62.1922 30 61.5762 30.21 60.7922 30.21C60.0642 30.21 59.4622 29.986 58.9862 29.538C58.5382 29.09 58.3142 28.502 58.3142 27.774V26.85C57.8382 27.942 57.0822 28.796 56.0462 29.412C55.0382 30.028 53.8622 30.336 52.5182 30.336C51.1462 30.336 49.9002 30.056 48.7802 29.496C47.6602 28.936 46.7782 28.166 46.1342 27.186C45.4902 26.206 45.1682 25.114 45.1682 23.91C45.1682 22.398 45.5462 21.208 46.3022 20.34C47.0862 19.472 48.3462 18.842 50.0822 18.45C51.8182 18.058 54.2122 17.862 57.2642 17.862H58.3142V16.896C58.3142 15.524 58.0202 14.53 57.4322 13.914C56.8442 13.27 55.8922 12.948 54.5762 12.948C53.7642 12.948 52.9382 13.074 52.0982 13.326C51.2582 13.55 50.2642 13.886 49.1162 14.334C48.3882 14.698 47.8562 14.88 47.5202 14.88C47.0162 14.88 46.5962 14.698 46.2602 14.334C45.9522 13.97 45.7982 13.494 45.7982 12.906C45.7982 12.43 45.9102 12.024 46.1342 11.688C46.3862 11.324 46.7922 10.988 47.3522 10.68C48.3322 10.148 49.4942 9.728 50.8382 9.42C52.2102 9.112 53.5542 8.958 54.8702 8.958ZM53.5682 26.556C54.9682 26.556 56.1022 26.094 56.9702 25.17C57.8662 24.218 58.3142 23 58.3142 21.516V20.634H57.5582C55.6822 20.634 54.2262 20.718 53.1902 20.886C52.1542 21.054 51.4122 21.348 50.9642 21.768C50.5162 22.188 50.2922 22.762 50.2922 23.49C50.2922 24.386 50.6002 25.128 51.2162 25.716C51.8602 26.276 52.6442 26.556 53.5682 26.556ZM78.8958 26.346C80.2958 26.43 80.9958 27.06 80.9958 28.236C80.9958 28.908 80.7158 29.426 80.1558 29.79C79.6238 30.126 78.8538 30.266 77.8458 30.21L76.7118 30.126C72.0078 29.79 69.6558 27.27 69.6558 22.566V13.41H67.5558C66.7998 13.41 66.2118 13.242 65.7918 12.906C65.3998 12.57 65.2038 12.08 65.2038 11.436C65.2038 10.792 65.3998 10.302 65.7918 9.966C66.2118 9.63 66.7998 9.462 67.5558 9.462H69.6558V5.598C69.6558 4.842 69.8938 4.24 70.3698 3.792C70.8458 3.344 71.4898 3.12 72.3018 3.12C73.0858 3.12 73.7158 3.344 74.1918 3.792C74.6678 4.24 74.9058 4.842 74.9058 5.598V9.462H78.4758C79.2318 9.462 79.8058 9.63 80.1978 9.966C80.6178 10.302 80.8278 10.792 80.8278 11.436C80.8278 12.08 80.6178 12.57 80.1978 12.906C79.8058 13.242 79.2318 13.41 78.4758 13.41H74.9058V22.944C74.9058 25.016 75.8578 26.122 77.7618 26.262L78.8958 26.346ZM92.0057 9.126C94.4697 9.126 96.3037 9.77 97.5077 11.058C98.7397 12.346 99.3557 14.292 99.3557 16.896V28.866C99.3557 29.258 99.2437 29.58 99.0197 29.832C98.7957 30.056 98.4877 30.168 98.0957 30.168C97.7037 30.168 97.3957 30.056 97.1717 29.832C96.9477 29.58 96.8357 29.258 96.8357 28.866V26.346C96.2477 27.606 95.3937 28.586 94.2737 29.286C93.1537 29.958 91.8657 30.294 90.4097 30.294C89.0937 30.294 87.8897 30.028 86.7977 29.496C85.7337 28.964 84.8797 28.236 84.2357 27.312C83.5917 26.388 83.2697 25.352 83.2697 24.204C83.2417 22.664 83.6197 21.474 84.4037 20.634C85.1877 19.766 86.4897 19.15 88.3097 18.786C90.1297 18.422 92.6777 18.24 95.9537 18.24H96.8357V16.686C96.8357 14.838 96.4577 13.494 95.7017 12.654C94.9457 11.786 93.7557 11.352 92.1317 11.352C90.0597 11.352 88.0857 11.898 86.2097 12.99C86.1257 13.046 85.9017 13.2 85.5377 13.452C85.2017 13.676 84.9077 13.788 84.6557 13.788C84.3757 13.788 84.1377 13.69 83.9417 13.494C83.7737 13.27 83.6897 13.004 83.6897 12.696C83.6897 12.08 84.1797 11.478 85.1597 10.89C86.1397 10.33 87.2317 9.896 88.4357 9.588C89.6397 9.28 90.8297 9.126 92.0057 9.126ZM90.6197 28.068C92.4397 28.068 93.9237 27.452 95.0717 26.22C96.2477 24.988 96.8357 23.42 96.8357 21.516V20.13H96.0377C93.3497 20.13 91.2917 20.242 89.8637 20.466C88.4357 20.69 87.4277 21.082 86.8397 21.642C86.2517 22.174 85.9577 22.958 85.9577 23.994C85.9577 25.17 86.4057 26.15 87.3017 26.934C88.1977 27.69 89.3037 28.068 90.6197 28.068ZM115.205 9.126C116.997 9.126 118.579 9.574 119.951 10.47C121.323 11.338 122.387 12.584 123.143 14.208C123.899 15.804 124.277 17.666 124.277 19.794C124.277 21.894 123.899 23.742 123.143 25.338C122.387 26.906 121.323 28.124 119.951 28.992C118.579 29.86 116.997 30.294 115.205 30.294C113.553 30.294 112.125 29.944 110.921 29.244C109.717 28.516 108.807 27.466 108.191 26.094V36.468C108.191 36.86 108.079 37.168 107.855 37.392C107.631 37.644 107.323 37.77 106.931 37.77C106.539 37.77 106.217 37.644 105.965 37.392C105.741 37.168 105.629 36.86 105.629 36.468V10.512C105.629 10.12 105.741 9.812 105.965 9.588C106.217 9.336 106.539 9.21 106.931 9.21C107.323 9.21 107.631 9.336 107.855 9.588C108.079 9.812 108.191 10.12 108.191 10.512V13.326C108.807 11.954 109.717 10.918 110.921 10.218C112.125 9.49 113.553 9.126 115.205 9.126ZM114.827 28.026C116.983 28.026 118.649 27.312 119.825 25.884C121.029 24.428 121.631 22.398 121.631 19.794C121.631 17.134 121.029 15.062 119.825 13.578C118.649 12.094 116.997 11.352 114.869 11.352C112.741 11.352 111.089 12.08 109.913 13.536C108.765 14.992 108.191 17.05 108.191 19.71C108.191 22.37 108.765 24.428 109.913 25.884C111.061 27.312 112.699 28.026 114.827 28.026ZM138.861 9.126C140.653 9.126 142.235 9.574 143.607 10.47C144.979 11.338 146.043 12.584 146.799 14.208C147.555 15.804 147.933 17.666 147.933 19.794C147.933 21.894 147.555 23.742 146.799 25.338C146.043 26.906 144.979 28.124 143.607 28.992C142.235 29.86 140.653 30.294 138.861 30.294C137.209 30.294 135.781 29.944 134.577 29.244C133.373 28.516 132.463 27.466 131.847 26.094V36.468C131.847 36.86 131.735 37.168 131.511 37.392C131.287 37.644 130.979 37.77 130.587 37.77C130.195 37.77 129.873 37.644 129.621 37.392C129.397 37.168 129.285 36.86 129.285 36.468V10.512C129.285 10.12 129.397 9.812 129.621 9.588C129.873 9.336 130.195 9.21 130.587 9.21C130.979 9.21 131.287 9.336 131.511 9.588C131.735 9.812 131.847 10.12 131.847 10.512V13.326C132.463 11.954 133.373 10.918 134.577 10.218C135.781 9.49 137.209 9.126 138.861 9.126ZM138.483 28.026C140.639 28.026 142.305 27.312 143.481 25.884C144.685 24.428 145.287 22.398 145.287 19.794C145.287 17.134 144.685 15.062 143.481 13.578C142.305 12.094 140.653 11.352 138.525 11.352C136.397 11.352 134.745 12.08 133.569 13.536C132.421 14.992 131.847 17.05 131.847 19.71C131.847 22.37 132.421 24.428 133.569 25.884C134.717 27.312 136.355 28.026 138.483 28.026Z" fill="url(#paint0_linear)"/>
<defs>
<linearGradient id="paint0_linear" x1="-7.9" y1="-4.94117" x2="103.7" y2="-4.94118" gradientUnits="userSpaceOnUse">
<stop stop-color="#3145FA"/>
<stop offset="0.9996" stop-color="#FF003A"/>
<stop offset="0.9997" stop-color="#FF003A"/>
<stop offset="0.9998" stop-color="#FF003A"/>
</linearGradient>
</defs>
</svg>
