<svg width="185" height="25" viewBox="0 0 185 25" fill="none" xmlns="http://www.w3.org/2000/svg">
<g clip-path="url(#clip0)">
<path d="M24.9348 9.59008C24.7712 9.08386 24.3222 8.72432 23.791 8.67644L16.5753 8.02125L13.722 1.34288C13.5116 0.85344 13.0325 0.536621 12.5001 0.536621C11.9678 0.536621 11.4886 0.85344 11.2783 1.34402L8.42498 8.02125L1.20814 8.67644C0.677886 8.72546 0.230029 9.08386 0.0654206 9.59008C-0.0991879 10.0963 0.0528318 10.6516 0.453958 11.0016L5.90816 15.7849L4.29984 22.8696C4.18216 23.3905 4.38434 23.9289 4.81656 24.2414C5.04888 24.4092 5.32068 24.4947 5.59478 24.4947C5.8311 24.4947 6.06552 24.431 6.27591 24.3051L12.5001 20.5851L18.7221 24.3051C19.1774 24.579 19.7513 24.554 20.1826 24.2414C20.615 23.928 20.817 23.3893 20.6993 22.8696L19.091 15.7849L24.5452 11.0025C24.9463 10.6516 25.0995 10.0973 24.9348 9.59008V9.59008Z" fill="#FFC107"/>
</g>
<g clip-path="url(#clip1)">
<path d="M104.935 9.59008C104.771 9.08386 104.322 8.72432 103.791 8.67644L96.5753 8.02125L93.722 1.34288C93.5116 0.85344 93.0325 0.536621 92.5001 0.536621C91.9678 0.536621 91.4886 0.85344 91.2783 1.34402L88.425 8.02125L81.2081 8.67644C80.6779 8.72546 80.23 9.08386 80.0654 9.59008C79.9008 10.0963 80.0528 10.6516 80.454 11.0016L85.9082 15.7849L84.2998 22.8696C84.1822 23.3905 84.3843 23.9289 84.8166 24.2414C85.0489 24.4092 85.3207 24.4947 85.5948 24.4947C85.8311 24.4947 86.0655 24.431 86.2759 24.3051L92.5001 20.5851L98.7221 24.3051C99.1774 24.579 99.7513 24.554 100.183 24.2414C100.615 23.928 100.817 23.3893 100.699 22.8696L99.091 15.7849L104.545 11.0025C104.946 10.6516 105.099 10.0973 104.935 9.59008V9.59008Z" fill="#FFC107"/>
</g>
<g clip-path="url(#clip2)">
<path d="M144.935 9.59008C144.771 9.08386 144.322 8.72432 143.791 8.67644L136.575 8.02125L133.722 1.34288C133.512 0.85344 133.032 0.536621 132.5 0.536621C131.968 0.536621 131.489 0.85344 131.278 1.34402L128.425 8.02125L121.208 8.67644C120.678 8.72546 120.23 9.08386 120.065 9.59008C119.901 10.0963 120.053 10.6516 120.454 11.0016L125.908 15.7849L124.3 22.8696C124.182 23.3905 124.384 23.9289 124.817 24.2414C125.049 24.4092 125.321 24.4947 125.595 24.4947C125.831 24.4947 126.066 24.431 126.276 24.3051L132.5 20.5851L138.722 24.3051C139.177 24.579 139.751 24.554 140.183 24.2414C140.615 23.928 140.817 23.3893 140.699 22.8696L139.091 15.7849L144.545 11.0025C144.946 10.6516 145.099 10.0973 144.935 9.59008V9.59008Z" fill="#FFC107"/>
</g>
<g clip-path="url(#clip3)">
<path d="M184.935 9.59008C184.771 9.08386 184.322 8.72432 183.791 8.67644L176.575 8.02125L173.722 1.34288C173.512 0.85344 173.032 0.536621 172.5 0.536621C171.968 0.536621 171.489 0.85344 171.278 1.34402L168.425 8.02125L161.208 8.67644C160.678 8.72546 160.23 9.08386 160.065 9.59008C159.901 10.0963 160.053 10.6516 160.454 11.0016L165.908 15.7849L164.3 22.8696C164.182 23.3905 164.384 23.9289 164.817 24.2414C165.049 24.4092 165.321 24.4947 165.595 24.4947C165.831 24.4947 166.066 24.431 166.276 24.3051L172.5 20.5851L178.722 24.3051C179.177 24.579 179.751 24.554 180.183 24.2414C180.615 23.928 180.817 23.3893 180.699 22.8696L179.091 15.7849L184.545 11.0025C184.946 10.6516 185.099 10.0973 184.935 9.59008V9.59008Z" fill="#FFC107"/>
</g>
<g clip-path="url(#clip4)">
<path d="M64.9348 9.59008C64.7712 9.08386 64.3222 8.72432 63.791 8.67644L56.5753 8.02125L53.722 1.34288C53.5116 0.85344 53.0325 0.536621 52.5001 0.536621C51.9678 0.536621 51.4886 0.85344 51.2783 1.34402L48.425 8.02125L41.2081 8.67644C40.6779 8.72546 40.23 9.08386 40.0654 9.59008C39.9008 10.0963 40.0528 10.6516 40.454 11.0016L45.9082 15.7849L44.2998 22.8696C44.1822 23.3905 44.3843 23.9289 44.8166 24.2414C45.0489 24.4092 45.3207 24.4947 45.5948 24.4947C45.8311 24.4947 46.0655 24.431 46.2759 24.3051L52.5001 20.5851L58.7221 24.3051C59.1774 24.579 59.7513 24.554 60.1826 24.2414C60.615 23.928 60.817 23.3893 60.6993 22.8696L59.091 15.7849L64.5452 11.0025C64.9463 10.6516 65.0995 10.0973 64.9348 9.59008V9.59008Z" fill="#FFC107"/>
</g>
<defs>
<clipPath id="clip0">
<rect width="25" height="25" fill="white"/>
</clipPath>
<clipPath id="clip1">
<rect width="25" height="25" fill="white" transform="translate(80)"/>
</clipPath>
<clipPath id="clip2">
<rect width="25" height="25" fill="white" transform="translate(120)"/>
</clipPath>
<clipPath id="clip3">
<rect width="25" height="25" fill="white" transform="translate(160)"/>
</clipPath>
<clipPath id="clip4">
<rect width="25" height="25" fill="white" transform="translate(40)"/>
</clipPath>
</defs>
</svg>
