<svg width="800" height="600" viewBox="0 0 800 600" fill="none" xmlns="http://www.w3.org/2000/svg">
<path d="M402 536C555.535 536 680 533.314 680 530C680 526.686 555.535 524 402 524C248.465 524 124 526.686 124 530C124 533.314 248.465 536 402 536Z" fill="#F0F0F0"/>
<path d="M676 327H226C223.791 327 222 328.791 222 331C222 333.209 223.791 335 226 335H676C678.209 335 680 333.209 680 331C680 328.791 678.209 327 676 327Z" fill="#282F80"/>
<path d="M642 335H648V525C648 526.657 646.657 528 645 528C643.343 528 642 526.657 642 525V335Z" fill="#F0F0F0"/>
<path d="M254 335H260V525C260 526.657 258.657 528 257 528C255.343 528 254 526.657 254 525V335Z" fill="#F0F0F0"/>
<path d="M292 335H298V525C298 526.657 296.657 528 295 528C293.343 528 292 526.657 292 525V335Z" fill="#F0F0F0"/>
<path d="M604 335H610V525C610 526.657 608.657 528 607 528C605.343 528 604 526.657 604 525V335Z" fill="#F0F0F0"/>
<path d="M365.479 298C365.755 297.989 365.988 298.203 366 298.479C366.649 314.076 372.036 321.836 382.175 321.997L382.5 322H386.5C387.881 322 389 323.119 389 324.5C389 325.825 387.968 326.91 386.664 326.995L386.5 327H320.5C319.119 327 318 325.881 318 324.5C318 323.175 319.032 322.09 320.336 322.005L320.5 322H324.5C334.849 322 340.344 314.242 341 298.479C341.012 298.203 341.245 297.989 341.521 298C341.797 298.012 342.011 298.245 342 298.521L341.951 299.515C341.259 311.894 337.441 319.428 330.505 322.001H376.495C369.662 319.467 365.856 312.118 365.082 300.066L365.049 299.515L365 298.521C364.989 298.245 365.203 298.012 365.479 298Z" fill="#D8D8D8"/>
<path d="M424 187H282C273.163 187 266 194.163 266 203V283C266 291.837 273.163 299 282 299H424C432.837 299 440 291.837 440 283V203C440 194.163 432.837 187 424 187Z" fill="white" stroke="#F0F0F0" stroke-linecap="round" stroke-linejoin="round"/>
<path d="M266 277H440V283C440 291.837 432.837 299 424 299H282C273.163 299 266 291.837 266 283V277Z" fill="#F0F0F0"/>
<path d="M353 293C355.761 293 358 290.761 358 288C358 285.239 355.761 283 353 283C350.239 283 348 285.239 348 288C348 290.761 350.239 293 353 293Z" stroke="#D8D8D8" stroke-linecap="round" stroke-linejoin="round"/>
<path fill-rule="evenodd" clip-rule="evenodd" d="M353 326.018H332L334 322.018C334 322.018 359 314.018 366 314.018L365 326.018H353Z" fill="#FF9E8B"/>
<path fill-rule="evenodd" clip-rule="evenodd" d="M479 250.035C504.628 249.4 528 264.035 528 296.035C528 317.369 526 341.369 522 368.035H439V315.035C433.111 322.221 429.259 325.881 421.443 326.014L351 326.018C352.333 320.018 355 315.351 359 312.018C385.667 309.351 393.333 305.024 414 299.035C436 267.69 455.667 251.357 479 250.035Z" fill="#FF003A"/>
<path d="M439 315.018L448 302.018" stroke="#EBA100" stroke-linecap="round" stroke-linejoin="round"/>
<path fill-rule="evenodd" clip-rule="evenodd" d="M383 396.018L373 499.018H401L417 396.018H383Z" fill="#2B46AA"/>
<path fill-rule="evenodd" clip-rule="evenodd" d="M441 351.018L358.619 375.195C352.565 376.971 347.705 381.5 345.506 387.414L304 499.018H342L372 420.018L441 390.018V351.018Z" fill="#3F65F4"/>
<path d="M429 378.018L361 400.018L329 482.018" stroke="#282F80" stroke-width="0.5" stroke-linecap="round" stroke-linejoin="round" stroke-dasharray="5 5"/>
<path fill-rule="evenodd" clip-rule="evenodd" d="M380 506.018H396V527.018H366L380 506.018Z" fill="#282F80"/>
<path fill-rule="evenodd" clip-rule="evenodd" d="M313 506.018H331V527.018H287L313 506.018Z" fill="#282F80"/>
<path d="M305 509.018L310 516.018" stroke="#FFC33F" stroke-linecap="round" stroke-linejoin="round"/>
<path d="M300 513.018L305 520.018" stroke="#FFC33F" stroke-linecap="round" stroke-linejoin="round"/>
<path d="M372 514.018L375 517.018" stroke="#FFC33F" stroke-linecap="round" stroke-linejoin="round"/>
<path d="M370 517.018L373 520.018" stroke="#FFC33F" stroke-linecap="round" stroke-linejoin="round"/>
<path d="M499 213.018C499 204.182 491.837 197.018 483 197.018C474.163 197.018 467 204.182 467 213.018V227.518C467 236.355 474.163 243.518 483 243.518C491.837 243.518 499 236.355 499 227.518V213.018Z" fill="#FF9E8B"/>
<path fill-rule="evenodd" clip-rule="evenodd" d="M493.04 192.332C490.487 189.173 487.337 189.394 483.591 192.992C483.591 192.992 473 188.018 469 198.018C469 198.018 462 205.018 465.484 208.777C465.484 208.777 469.393 211.503 468.468 212.569C467.543 213.634 467.559 214.843 470.001 221.179C472.443 227.515 463.123 236.029 463.471 241.01C463.819 245.99 466.306 245.816 462.109 250.114C457.911 254.412 463.442 262.033 466.426 261.824C469.41 261.616 469.255 259.562 466.157 265.284C463.059 271.006 463.835 274.956 466.993 277.238C467.42 277.546 469.79 282.968 473.158 283.444C474.527 283.638 479.009 283.311 479.004 281.03C478.989 275.058 486.262 282.845 490.186 283.256C491.82 278.121 496.819 279.222 499.952 279.566C503.09 279.909 508.374 283.138 509.279 283.926C514.084 283.59 512.5 276.824 512.921 278.659C513.868 278.486 513.333 282.77 514.197 282.579C517.296 281.894 520.217 284.821 521.966 281.959C523.467 279.503 523.031 274.252 522.961 273.251C522.368 264.784 518.5 263.626 518.5 263.626C518.5 263.626 525.576 257.625 522.985 256.305C520.394 254.985 519.827 254.023 522.707 252.32C525.586 250.618 527.043 250.015 524.671 244.675C522.298 239.336 519.464 234.529 521.209 230.903C522.955 227.278 518.2 223.606 518.881 219.054C519.562 214.502 520.592 214.93 518.926 212.544C517.26 210.158 516.021 206.741 516.877 204.679C517.732 202.617 513.928 205.386 513.003 206.452C512.078 207.517 513.335 196.919 507.219 202.351C507.219 202.351 510.028 199.652 508.432 198.262C506.836 196.873 505.438 190.964 500.604 193.304C495.919 190.629 493.04 192.332 493.04 192.332Z" fill="#282F80"/>
<path d="M495.073 201.518C495.073 201.518 497.1 210.518 489.5 215.518" stroke="#4B52A4" stroke-width="0.5" stroke-linecap="round" stroke-linejoin="round"/>
<path d="M500.923 212.018C500.923 212.018 498.231 214.018 499.308 215.018C500.385 216.018 502 215.018 502 215.018C502 215.018 501.462 217.018 499.308 219.018" stroke="#4B52A4" stroke-width="0.5" stroke-linecap="round" stroke-linejoin="round"/>
<path d="M506.5 209.518C506.5 209.518 506 215.018 504 216.518" stroke="#4B52A4" stroke-width="0.5" stroke-linecap="round" stroke-linejoin="round"/>
<path d="M513.5 264.018C513.5 264.018 513 269.518 511 271.018" stroke="#4B52A4" stroke-width="0.5" stroke-linecap="round" stroke-linejoin="round"/>
<path d="M492.5 257.018C492.5 257.018 492 262.518 490 264.018" stroke="#4B52A4" stroke-width="0.5" stroke-linecap="round" stroke-linejoin="round"/>
<path d="M513 214.018C513 214.018 510 217.018 511.5 219.018C513 221.018 513.5 222.018 512 225.518C510.5 229.018 517.5 228.518 519 235.018" stroke="#4B52A4" stroke-width="0.5" stroke-linecap="round" stroke-linejoin="round"/>
<path d="M492 245.112C492 245.112 493.5 244.643 494.5 246.518" stroke="#4B52A4" stroke-width="0.5" stroke-linecap="round" stroke-linejoin="round"/>
<path d="M497 240.788C497 240.788 501 237.247 501 240.788C501 244.33 498 247.871 499 250.4C500 252.93 504.5 252.424 505 260.518" stroke="#4B52A4" stroke-width="0.5" stroke-linecap="round" stroke-linejoin="round"/>
<path d="M511.5 246.018C511.5 246.018 509 247.018 509 249.018C509 251.018 515.5 250.518 515.5 252.018C515.5 253.518 512.5 256.518 512.5 258.018" stroke="#4B52A4" stroke-width="0.5" stroke-linecap="round" stroke-linejoin="round"/>
<path d="M485 221.216C485 221.216 478 220.226 478 224.185C478 228.145 482 229.63 481.5 233.589C481 237.548 478 240.518 478 240.518" stroke="#4B52A4" stroke-width="0.5" stroke-linecap="round" stroke-linejoin="round"/>
<path d="M469.215 237.518C469.215 237.518 465.734 243.518 467.723 245.518C469.712 247.518 471.701 244.518 473.193 248.518C474.684 252.518 470.209 252.018 471.204 259.018" stroke="#4B52A4" stroke-width="0.5" stroke-linecap="round" stroke-linejoin="round"/>
<path d="M473.5 200.018C473.5 200.018 472.5 206.018 470 208.018" stroke="#4B52A4" stroke-width="0.5" stroke-linecap="round" stroke-linejoin="round"/>
<path d="M484 203.018C486 203.018 487 202.018 487 202.018C487.333 198.685 489.167 197.018 492.5 197.018" stroke="#4B52A4" stroke-width="0.5" stroke-linecap="round" stroke-linejoin="round"/>
<path d="M503.5 203.018C503.5 203.018 506.5 201.018 506.5 200.018" stroke="#4B52A4" stroke-width="0.5" stroke-linecap="round" stroke-linejoin="round"/>
<path d="M497.5 227.018C497.5 227.018 491.5 237.518 486 239.018" stroke="#4B52A4" stroke-width="0.5" stroke-linecap="round" stroke-linejoin="round"/>
<path d="M483.389 252.518C483.389 252.518 483.833 259.018 482.5 260.518" stroke="#4B52A4" stroke-width="0.5" stroke-linecap="round" stroke-linejoin="round"/>
<path d="M479.5 256.518C479.5 256.518 479 259.518 475.5 260.518" stroke="#4B52A4" stroke-width="0.5" stroke-linecap="round" stroke-linejoin="round"/>
<path d="M514 239.518C514 239.518 516 241.018 517 241.018" stroke="#4B52A4" stroke-width="0.5" stroke-linecap="round" stroke-linejoin="round"/>
<path d="M508 223.018C508 223.018 504.667 229.518 506.889 231.518C509.111 233.518 506.889 237.018 506.889 237.018" stroke="#4B52A4" stroke-width="0.5" stroke-linecap="round" stroke-linejoin="round"/>
<path d="M480 208.018C480 208.018 481.5 209.518 478.5 213.018" stroke="#4B52A4" stroke-width="0.5" stroke-linecap="round" stroke-linejoin="round"/>
<path fill-rule="evenodd" clip-rule="evenodd" d="M306 487.018L301 500.018H344L348 489.018L306 487.018Z" fill="#3F65F4"/>
<path d="M307.5 486.518L345.5 488.518" stroke="#282F80" stroke-width="0.5" stroke-linecap="round" stroke-linejoin="round"/>
<path d="M372.5 492.518L403.5 493.518" stroke="#282F80" stroke-width="0.5" stroke-linecap="round" stroke-linejoin="round"/>
<path fill-rule="evenodd" clip-rule="evenodd" d="M372 493.018L370 500.018H403L405 494.018L372 493.018Z" fill="#2B46AA"/>
<path d="M414 300.018L413 306.018" stroke="#EBA100" stroke-linecap="round" stroke-linejoin="round"/>
<path d="M416 299.018L418 303.018" stroke="#EBA100" stroke-linecap="round" stroke-linejoin="round"/>
<path d="M364 312.018C364 312.018 359 320.018 359 326.018" stroke="#EBA100" stroke-linecap="round" stroke-linejoin="round"/>
<path d="M575.617 304C575.617 302.895 576.512 302 577.617 302H597.383C598.488 302 599.383 302.895 599.383 304V317C599.383 322.523 594.906 327 589.383 327H585.617C580.094 327 575.617 322.523 575.617 317V304Z" fill="#FF003A"/>
<path fill-rule="evenodd" clip-rule="evenodd" d="M582.613 313.661C581.654 313.16 581 312.156 581 311C581 309.343 582.343 308 584 308C585.156 308 586.16 308.654 586.661 309.613C587.012 309.539 587.377 309.5 587.75 309.5C588.123 309.5 588.488 309.539 588.839 309.613C589.34 308.654 590.344 308 591.5 308C593.157 308 594.5 309.343 594.5 311C594.5 312.156 593.846 313.16 592.887 313.661C592.961 314.012 593 314.377 593 314.75C593 317.649 590.649 320 587.75 320C584.851 320 582.5 317.649 582.5 314.75C582.5 314.377 582.539 314.012 582.613 313.661Z" fill="#A13426"/>
<path d="M601 317C603.761 317 606 314.761 606 312C606 309.239 603.761 307 601 307C598.239 307 596 309.239 596 312C596 314.761 598.239 317 601 317Z" stroke="#CF4634" stroke-width="2" stroke-linecap="round" stroke-linejoin="round"/>
<path d="M584.339 298.5C584.339 298.5 588.089 290.25 584.339 286.5C580.589 282.75 587.339 276 587.339 276" stroke="#E6E6E6" stroke-width="0.75" stroke-linecap="round" stroke-linejoin="round"/>
<path d="M591.839 282C591.839 282 588.089 283.5 590.339 288.75C592.589 294 590.339 298.5 590.339 298.5" stroke="#E6E6E6" stroke-width="0.75" stroke-linecap="round" stroke-linejoin="round"/>
<path d="M484.479 436H456.479C454.822 436 453.479 437.343 453.479 439V451C453.479 452.657 454.822 454 456.479 454H484.479C486.136 454 487.479 452.657 487.479 451V439C487.479 437.343 486.136 436 484.479 436Z" fill="#F0F0F0" stroke="#F0F0F0" stroke-linecap="round" stroke-linejoin="round"/>
<path d="M465.479 454H475.479V463C475.479 464.657 474.135 466 472.479 466H468.479C466.822 466 465.479 464.657 465.479 463V454Z" fill="#E6E6E6"/>
<path d="M471.479 466H469.479V504H471.479V466Z" fill="#F0F0F0"/>
<path fill-rule="evenodd" clip-rule="evenodd" d="M494.479 528C494.479 514.745 483.733 504 470.479 504C457.224 504 446.479 514.745 446.479 528H494.479Z" stroke="#F0F0F0" stroke-linecap="round" stroke-linejoin="round"/>
<path fill-rule="evenodd" clip-rule="evenodd" d="M491.479 268C450.479 268 445.479 293 445.479 323C445.479 353 417.479 367 387.479 372C357.479 377 381.479 445 460.479 445C539.479 445 550.479 391 550.479 357C550.479 323 532.479 268 491.479 268Z" fill="white"/>
<path fill-rule="evenodd" clip-rule="evenodd" d="M549.31 340.986C549.127 341.388 548.927 341.787 548.711 342.183C547.257 344.855 545.111 347.394 542.708 350.236C542.141 350.907 541.559 351.595 540.969 352.306C534.806 359.726 527.979 369.336 527.979 387C527.979 404.347 520.55 416.439 511.193 422.965C501.813 429.506 490.533 430.444 482.744 425.576C478.574 422.97 472.722 422.941 466.408 424.261C460.072 425.585 453.157 428.29 446.766 431.298C440.371 434.307 434.481 437.628 430.191 440.196C429.763 440.452 429.351 440.7 428.956 440.94C429.4 441.063 429.846 441.183 430.295 441.3C430.429 441.219 430.566 441.137 430.704 441.054C434.977 438.497 440.836 435.193 447.192 432.202C453.551 429.21 460.386 426.54 466.612 425.239C472.86 423.934 478.383 424.03 482.214 426.424C490.425 431.556 502.144 430.494 511.765 423.785C521.407 417.061 528.979 404.653 528.979 387C528.979 369.664 535.651 360.274 541.738 352.944C542.311 352.255 542.881 351.58 543.442 350.918V350.917C545.826 348.099 548.036 345.486 549.543 342.746C549.47 342.162 549.392 341.575 549.31 340.986Z" fill="#E6E6E6"/>
<path fill-rule="evenodd" clip-rule="evenodd" d="M348 215.411C348 215.411 319 214.411 297 242.411C280 226.411 269 211.411 269 211.411H249C249 211.411 283 268.411 297 268.411C311 268.411 315 256.411 315 256.411V276.411H395C395 276.411 388.462 237.643 380 228.411C369 216.411 348 215.411 348 215.411Z" fill="#3F65F4"/>
<path fill-rule="evenodd" clip-rule="evenodd" d="M255 208.411L253 205.411L238 200.411L239.858 198.664L261 201.411L262 208.411H255Z" fill="#FF9E8B"/>
<path fill-rule="evenodd" clip-rule="evenodd" d="M343 202.411L342 214.411H352L351 202.411H343Z" fill="#FF9E8B"/>
<path d="M364 184.411C364 175.574 356.837 168.411 348 168.411C339.163 168.411 332 175.574 332 184.411V192.411C332 201.247 339.163 208.411 348 208.411C356.837 208.411 364 201.247 364 192.411V184.411Z" fill="#FF9E8B"/>
<path fill-rule="evenodd" clip-rule="evenodd" d="M333 212.411C333 212.411 329 219.411 332 219.411C335 219.411 359 219.411 361 219.411C363 219.411 363 212.411 361 212.411C360.129 212.411 355.841 213.411 348.138 213.411C344.052 213.411 333 212.411 333 212.411Z" fill="#224DEC"/>
<path fill-rule="evenodd" clip-rule="evenodd" d="M333 197.411C331.092 195.822 320 188.411 329 183.411C329 183.411 321 174.411 334 171.411C334 171.411 335 158.411 349 163.411C349 163.411 371.585 156.772 367 168.411C362.415 180.051 359 182.411 349 180.411C339 178.411 338 190.411 338 190.411C338 190.411 337 195.411 335 190.411C333 185.411 331 189.411 333 197.411Z" fill="#282F80"/>
<path d="M361 194.411C364.314 194.411 367 191.725 367 188.411C367 185.097 364.314 182.411 361 182.411C357.686 182.411 355 185.097 355 188.411C355 191.725 357.686 194.411 361 194.411Z" stroke="#FFC33F" stroke-linecap="round" stroke-linejoin="round"/>
<path d="M347 194.411C350.314 194.411 353 191.725 353 188.411C353 185.097 350.314 182.411 347 182.411C343.686 182.411 341 185.097 341 188.411C341 191.725 343.686 194.411 347 194.411Z" stroke="#FFC33F" stroke-linecap="round" stroke-linejoin="round"/>
<path d="M346 199.411C346 199.411 351 202.411 354 199.411" stroke="#282F80" stroke-linecap="round" stroke-linejoin="round"/>
<path d="M345 188.411C345 188.411 347.4 186.411 349 188.411" stroke="#282F80" stroke-linecap="round" stroke-linejoin="round"/>
<path d="M359 188.411C359 188.411 361.4 186.411 363 188.411" stroke="#282F80" stroke-linecap="round" stroke-linejoin="round"/>
<path d="M376.5 249.911L381.5 274.911" stroke="#282F80" stroke-linecap="round" stroke-linejoin="round"/>
<path d="M315 256.411L316.5 252.911" stroke="#282F80" stroke-linecap="round" stroke-linejoin="round"/>
<path d="M338 220.411L336 223.411" stroke="#224DEC" stroke-linecap="round" stroke-linejoin="round"/>
<path d="M346 220.411V223.411" stroke="#224DEC" stroke-linecap="round" stroke-linejoin="round"/>
<path d="M355 220.411L358 223.411" stroke="#224DEC" stroke-linecap="round" stroke-linejoin="round"/>
<path d="M272 215.411H257" stroke="#282F80" stroke-linecap="round" stroke-linejoin="round"/>
<path fill-rule="evenodd" clip-rule="evenodd" d="M543 116.625C539.479 116.625 536.625 119.479 536.625 123V166V178.568C536.625 180.907 539.452 182.078 541.106 180.424L555.155 166.375H611C614.521 166.375 617.375 163.521 617.375 160V123C617.375 119.479 614.521 116.625 611 116.625H543ZM554.095 166.375H537.375V178.568C537.375 180.238 539.395 181.075 540.576 179.894L554.095 166.375ZM555 165.625H611C614.107 165.625 616.625 163.107 616.625 160V123C616.625 119.893 614.107 117.375 611 117.375H543C539.893 117.375 537.375 119.893 537.375 123V165.625H555Z" fill="#FFC33F"/>
<path d="M556 146C558.209 146 560 144.209 560 142C560 139.791 558.209 138 556 138C553.791 138 552 139.791 552 142C552 144.209 553.791 146 556 146Z" fill="#FFF3D8"/>
<path d="M573 148C576.314 148 579 145.314 579 142C579 138.686 576.314 136 573 136C569.686 136 567 138.686 567 142C567 145.314 569.686 148 573 148Z" fill="#FFF3D8"/>
<path d="M594 150C598.418 150 602 146.418 602 142C602 137.582 598.418 134 594 134C589.582 134 586 137.582 586 142C586 146.418 589.582 150 594 150Z" fill="#FFF3D8"/>
<path fill-rule="evenodd" clip-rule="evenodd" d="M555 166L550 171L537 166H555Z" fill="#EBA100"/>
<path fill-rule="evenodd" clip-rule="evenodd" d="M149.186 462.997H209.186L192.686 527.872H164.186L149.186 462.997Z" stroke="#282F80" stroke-linecap="round" stroke-linejoin="round"/>
<path fill-rule="evenodd" clip-rule="evenodd" d="M186.344 527.872H192.686L209.186 462.997H197.722C193.284 466.788 190.178 472.666 191.936 481.747C194.598 495.498 195.816 500.329 194.273 503.999C193.207 506.533 190.823 508.514 186.686 512.497C181.785 517.217 183.386 523.08 186.344 527.872Z" fill="#282F80"/>
<path fill-rule="evenodd" clip-rule="evenodd" d="M153.686 370.13C147.686 366.005 141.686 373.13 150.311 392.255C158.936 411.38 149.186 411.755 148.061 421.505C146.936 431.255 166.811 429.755 167.936 447.005C169.061 464.255 185.561 442.88 182.186 433.505C178.811 424.13 169.436 426.38 176.561 411.38C183.686 396.38 171.311 401.63 169.061 389.63C166.811 377.63 159.686 374.255 153.686 370.13Z" stroke="#E6E6E6" stroke-linecap="round" stroke-linejoin="round"/>
<path d="M155.936 382.13C155.936 382.13 167.936 405.38 171.311 440.63" stroke="#E6E6E6" stroke-linecap="round" stroke-linejoin="round"/>
<path fill-rule="evenodd" clip-rule="evenodd" d="M179.561 455.255C185.186 456.38 187.061 449.63 191.186 443.255C195.311 436.88 196.436 436.505 200.936 432.38C205.436 428.255 198.311 421.13 203.936 412.505C209.561 403.88 217.061 394.505 214.061 388.13C211.061 381.755 189.686 390.755 185.186 410.63C180.686 430.505 169.061 424.13 169.061 435.38C169.061 446.63 173.936 454.13 179.561 455.255Z" fill="#3F65F4"/>
<path fill-rule="evenodd" clip-rule="evenodd" d="M188.604 447.649C185.989 452.338 183.881 456.119 179.561 455.255C179.376 455.218 179.192 455.174 179.009 455.123C179.915 451.248 182.24 444.963 188.186 437.255C196.533 426.434 195.96 422.495 195.501 419.345C195.404 418.674 195.311 418.038 195.311 417.38C195.311 413.832 203.365 401.56 212.489 398.974C210.879 402.169 208.607 405.538 206.358 408.873C205.537 410.091 204.718 411.305 203.936 412.505C200.91 417.145 201.574 421.352 202.133 424.89C202.613 427.928 203.015 430.474 200.936 432.38C200.101 433.146 199.382 433.782 198.738 434.352C195.915 436.851 194.545 438.063 191.186 443.255C190.229 444.734 189.393 446.233 188.604 447.649Z" fill="#2B46AA"/>
<path d="M179.186 447.005C179.186 447.005 187.811 411.38 205.436 394.88" stroke="#2B46AA" stroke-linecap="round" stroke-linejoin="round"/>
<path d="M156 221V165C156 156.716 162.716 150 171 150H331C339.284 150 346 143.284 346 135V114C346 105.716 352.716 99 361 99H377" stroke="#E6E6E6" stroke-linecap="round" stroke-linejoin="round" stroke-dasharray="7 7"/>
<path d="M473.2 65H390.8C388.149 65 386 67.149 386 69.8V127.4C386 130.051 388.149 132.2 390.8 132.2H473.2C475.851 132.2 478 130.051 478 127.4V69.8C478 67.149 475.851 65 473.2 65Z" stroke="#E6E6E6" stroke-linecap="round" stroke-linejoin="round"/>
<path d="M394.8 76.1999C396.125 76.1999 397.2 75.1254 397.2 73.7999C397.2 72.4744 396.125 71.3999 394.8 71.3999C393.475 71.3999 392.4 72.4744 392.4 73.7999C392.4 75.1254 393.475 76.1999 394.8 76.1999Z" stroke="#E6E6E6" stroke-linecap="round" stroke-linejoin="round"/>
<path d="M402.8 76.1999C404.125 76.1999 405.2 75.1254 405.2 73.7999C405.2 72.4744 404.125 71.3999 402.8 71.3999C401.475 71.3999 400.4 72.4744 400.4 73.7999C400.4 75.1254 401.475 76.1999 402.8 76.1999Z" stroke="#E6E6E6" stroke-linecap="round" stroke-linejoin="round"/>
<path d="M410.8 76.1999C412.125 76.1999 413.2 75.1254 413.2 73.7999C413.2 72.4744 412.125 71.3999 410.8 71.3999C409.475 71.3999 408.4 72.4744 408.4 73.7999C408.4 75.1254 409.475 76.1999 410.8 76.1999Z" stroke="#E6E6E6" stroke-linecap="round" stroke-linejoin="round"/>
<path d="M392.4 82.6001H471.6" stroke="#E6E6E6" stroke-linecap="round" stroke-linejoin="round"/>
<path d="M406.8 88.2H394C393.116 88.2 392.4 88.9163 392.4 89.8V112.2C392.4 113.084 393.116 113.8 394 113.8H406.8C407.684 113.8 408.4 113.084 408.4 112.2V89.8C408.4 88.9163 407.684 88.2 406.8 88.2Z" stroke="#E6E6E6" stroke-linecap="round" stroke-linejoin="round"/>
<path d="M427.6 88.2H414.8C413.916 88.2 413.2 88.9163 413.2 89.8V112.2C413.2 113.084 413.916 113.8 414.8 113.8H427.6C428.484 113.8 429.2 113.084 429.2 112.2V89.8C429.2 88.9163 428.484 88.2 427.6 88.2Z" stroke="#E6E6E6" stroke-linecap="round" stroke-linejoin="round"/>
<path d="M448.4 88.2H435.6C434.716 88.2 434 88.9163 434 89.8V112.2C434 113.084 434.716 113.8 435.6 113.8H448.4C449.284 113.8 450 113.084 450 112.2V89.8C450 88.9163 449.284 88.2 448.4 88.2Z" stroke="#E6E6E6" stroke-linecap="round" stroke-linejoin="round"/>
<path d="M469.2 88.2H456.4C455.516 88.2 454.8 88.9163 454.8 89.8V112.2C454.8 113.084 455.516 113.8 456.4 113.8H469.2C470.084 113.8 470.8 113.084 470.8 112.2V89.8C470.8 88.9163 470.084 88.2 469.2 88.2Z" stroke="#E6E6E6" stroke-linecap="round" stroke-linejoin="round"/>
<path d="M189.76 232H123.84C121.719 232 120 233.719 120 235.84V281.92C120 284.041 121.719 285.76 123.84 285.76H189.76C191.881 285.76 193.6 284.041 193.6 281.92V235.84C193.6 233.719 191.881 232 189.76 232Z" stroke="#E6E6E6" stroke-linecap="round" stroke-linejoin="round"/>
<path d="M127.04 240.96C128.1 240.96 128.96 240.101 128.96 239.04C128.96 237.98 128.1 237.12 127.04 237.12C125.98 237.12 125.12 237.98 125.12 239.04C125.12 240.101 125.98 240.96 127.04 240.96Z" stroke="#E6E6E6" stroke-linecap="round" stroke-linejoin="round"/>
<path d="M133.44 240.96C134.5 240.96 135.36 240.101 135.36 239.04C135.36 237.98 134.5 237.12 133.44 237.12C132.38 237.12 131.52 237.98 131.52 239.04C131.52 240.101 132.38 240.96 133.44 240.96Z" stroke="#E6E6E6" stroke-linecap="round" stroke-linejoin="round"/>
<path d="M139.84 240.96C140.9 240.96 141.76 240.101 141.76 239.04C141.76 237.98 140.9 237.12 139.84 237.12C138.78 237.12 137.92 237.98 137.92 239.04C137.92 240.101 138.78 240.96 139.84 240.96Z" stroke="#E6E6E6" stroke-linecap="round" stroke-linejoin="round"/>
<path d="M125.12 246.08H188.48" stroke="#E6E6E6" stroke-linecap="round" stroke-linejoin="round"/>
<path d="M136.64 250.56H126.4C125.693 250.56 125.12 251.133 125.12 251.84V269.76C125.12 270.467 125.693 271.04 126.4 271.04H136.64C137.347 271.04 137.92 270.467 137.92 269.76V251.84C137.92 251.133 137.347 250.56 136.64 250.56Z" stroke="#E6E6E6" stroke-linecap="round" stroke-linejoin="round"/>
<path d="M187.48 250.56H143.04C142.333 250.56 141.76 251.133 141.76 251.84V269.76C141.76 270.467 142.333 271.04 143.04 271.04H187.48C188.187 271.04 188.76 270.467 188.76 269.76V251.84C188.76 251.133 188.187 250.56 187.48 250.56Z" stroke="#E6E6E6" stroke-linecap="round" stroke-linejoin="round"/>
<path d="M296 107H193C189.686 107 187 109.686 187 113V185C187 188.314 189.686 191 193 191H296C299.314 191 302 188.314 302 185V113C302 109.686 299.314 107 296 107Z" fill="#282F80"/>
<path d="M198 121C199.657 121 201 119.657 201 118C201 116.343 199.657 115 198 115C196.343 115 195 116.343 195 118C195 119.657 196.343 121 198 121Z" stroke="#4B52A4" stroke-linecap="round" stroke-linejoin="round"/>
<path d="M208 121C209.657 121 211 119.657 211 118C211 116.343 209.657 115 208 115C206.343 115 205 116.343 205 118C205 119.657 206.343 121 208 121Z" stroke="#4B52A4" stroke-linecap="round" stroke-linejoin="round"/>
<path d="M218 121C219.657 121 221 119.657 221 118C221 116.343 219.657 115 218 115C216.343 115 215 116.343 215 118C215 119.657 216.343 121 218 121Z" stroke="#4B52A4" stroke-linecap="round" stroke-linejoin="round"/>
<path d="M292 137H197C195.895 137 195 137.895 195 139V177C195 178.105 195.895 179 197 179H292C293.105 179 294 178.105 294 177V139C294 137.895 293.105 137 292 137Z" fill="#4B52A4"/>
<path fill-rule="evenodd" clip-rule="evenodd" d="M245.5 148H244.5C244.224 148 244 147.776 244 147.5V147.054C244 146.556 244.34 146.094 244.832 146.014C245.122 145.965 245.42 146.046 245.645 146.236C245.87 146.426 246 146.705 246 147V147.5C246 147.776 245.776 148 245.5 148ZM240.973 166H242.152C242.334 166 242.501 166.099 242.589 166.258C242.677 166.417 242.672 166.611 242.576 166.765L240.848 169.53C240.555 169.998 239.938 170.141 239.47 169.848C239.002 169.555 238.859 168.938 239.152 168.47L240.549 166.235C240.64 166.089 240.801 166 240.973 166ZM251.92 160.229L247.42 153.229C247.33 153.089 247.176 153.003 247.009 153C246.841 152.993 246.681 153.074 246.589 153.215L245.064 155.413C244.987 155.526 244.866 155.602 244.73 155.623C244.594 155.644 244.456 155.608 244.348 155.523L243.806 155.104C243.607 154.95 243.324 154.968 243.146 155.146L238.146 160.146C238.003 160.289 237.96 160.504 238.037 160.691C238.115 160.879 238.297 161 238.5 161H251.5C251.683 160.999 251.851 160.899 251.938 160.739C252.025 160.578 252.018 160.383 251.92 160.229ZM239.5 156C238.673 156 238 155.327 238 154.5C238 153.673 238.673 153 239.5 153C240.327 153 241 153.673 241 154.5C241 155.327 240.327 156 239.5 156ZM255 150.5V163.5C255 164.327 254.327 165 253.5 165H236.5C235.673 165 235 164.327 235 163.5V150.5C235 149.673 235.673 149 236.5 149H253.5C254.327 149 255 149.673 255 150.5ZM250.883 169.469C251.051 169.154 251.037 168.773 250.848 168.47L249.451 166.235C249.36 166.089 249.199 166 249.027 166H247.848C247.666 166 247.499 166.099 247.411 166.258C247.323 166.417 247.328 166.611 247.424 166.765L249.152 169.53C249.341 169.833 249.678 170.012 250.035 169.999C250.392 169.987 250.715 169.785 250.883 169.469Z" fill="#6C72BC"/>
<path d="M286 154L290 158L286 162" stroke="#6C72BC" stroke-linecap="round" stroke-linejoin="round"/>
<path d="M203 154L199 158L203 162" stroke="#6C72BC" stroke-linecap="round" stroke-linejoin="round"/>
<path d="M195 129H294" stroke="#4B52A4" stroke-linecap="round" stroke-linejoin="round"/>
<path d="M189 88L177 68" stroke="#FFC33F" stroke-width="2" stroke-linecap="round" stroke-linejoin="round"/>
<path d="M175 97L155 82" stroke="#FFC33F" stroke-width="2" stroke-linecap="round" stroke-linejoin="round"/>
<path d="M170 113L144.351 107.375" stroke="#FFC33F" stroke-width="2" stroke-linecap="round" stroke-linejoin="round"/>
</svg>
